<?xml version="1.0" encoding="utf-8"?>
<!-- Generator: Adobe Illustrator 19.1.0, SVG Export Plug-In . SVG Version: 6.00 Build 0)  -->
<svg version="1.1" id="Layer_1" xmlns="http://www.w3.org/2000/svg" xmlns:xlink="http://www.w3.org/1999/xlink" x="0px" y="0px"
	 viewBox="0 0 247.1 73.2" style="enable-background:new 0 0 247.1 73.2;" xml:space="preserve">
<style type="text/css">
	.st0{fill:#FFFFFF;}
	.st1{fill:none;stroke:#FFFFFF;stroke-miterlimit:10;}
</style>
<path class="st0" d="M39.3,19.6c-0.7,0.1-2.9,0-4.2-0.1c-0.3,0-0.2,0-0.5,0c-1.4,0.1-3.9,0.2-4.6,0c-0.2-0.1-0.2-0.2,0-0.3l0.4-0.2
	c0.9-0.2,2.8-1,3.7-1.1c0.2,0,0.7-0.1,1-0.1c1.4,0.1,3.7,1.1,4.1,1.4C39.5,19.3,39.5,19.5,39.3,19.6 M37.9,21.4c0,0.5-1.3,0-3.1,0.1
	c-1.8,0-3.3,0.2-3.2,0c0.1-0.4-0.1-0.8-0.2-1.1v-0.1c-0.1-0.3,2,0.3,3.4,0.2c1.8-0.1,3.5-0.4,3.5-0.1C38.2,20.6,37.9,20.9,37.9,21.4
	 M34.5,15.8L34.5,15.8c0-0.2,0.4-0.6,0.5-0.3c0.1,0.3,0.3,1.9,0.3,1.9c-0.2,0-1,0.2-1-0.1C34.3,17,34.5,15.9,34.5,15.8 M0,4v41.4
	h2.5c0.1-1.9,1.2-11.3,1.1-14.6c-0.1-4.1-0.3-7.8-0.1-8.2c0.5-1,5.6-0.4,5.6-0.4S7.1,28.3,8,32c0.2,0.7,0.3,1.3,0.4,1.8
	c0.6-3.4,1.3-6,0.8-10.6c-0.5-5-1.1-8.4-0.5-8.5c0.8-0.2,1.4-0.5,1.4-0.5s0.6-2.9,1.1-2c0.5,0.9,0.9,1.9,0.9,1.9s0.9-0.2,1.6,0
	c0.7,0.1-1.2,7.1-0.8,12.6c0.1,1.1,0.3,2.7,0.5,3.6c0.1-0.5,0.4-1,0.5-1.5c0.8-4.5-0.2-9.1,0.6-9.1c1,0.1,1,0.7,3.3,1
	c2.6,0.3,3-0.2,2.8,0.3c-0.2,0.6-1.3,2.9-0.5,6.8c0.1,0.5,0.3,0.9,0.5,1.4c0.4-1.7,0.8-3.5,1-4.6c0.4-3-1.1-7-0.7-7
	c0.3,0,0.9-0.1,0.9-0.1s-0.2-0.8,0-0.8c0.3,0,1.1-0.1,1.1-0.1s0.2-1.2,0.4-1.2c0.2,0,1.7-0.1,2-0.1c0.2,0,0.2,1,0.2,1s1,0,1.1,0
	c0.2,0,0.2,0.9,0.2,0.9s0.7-0.1,1.2-0.1c0.6,0-1,1.4-0.8,8.2c0.1,3.1,0.3,5,0.9,6.4c0.3-1,0.5-2.2,0.7-3.6c0.1-1-0.7-3.1,0-2.9
	c1.2,0.3,2.9,1.5,5,2c-0.3-1.1-0.7-3.9-0.9-4.7c-0.3-0.9,1.2-0.3,2-0.3c0.8,0,2.4-0.5,2,0.3c-0.6,1.1-1.2,3.9-1.5,4.9
	c0.4,0,0.7-0.1,1.6-0.2c1.3-0.1-0.1,2.2-0.4,5.6c-0.2,1.9,2.3,10.2,2.4,12.5h2.7V4H0z"/>
<path class="st0" d="M28.5,37.2l0.1-0.2c0,0-0.1,0-0.5,0c-1.9,0-7.9,0.3-7.9,2.4c0,1.6,2.4,4.6,5.9,5.9h0.5c-1-1.4-2.5-3.9-2.4-4.9
	C24.4,38.1,28.5,37.2,28.5,37.2"/>
<path class="st0" d="M17.6,44.7c0.1-0.1,0.2-0.2,0.3-0.3c0.6-0.7-1.1-2.1-2.8-3.3c-1.1-0.8-1.5-2-0.8-3.2c0.5-0.9,2.3-2.2,4.9-2.1
	c2.7,0.1,3.6,1,3.6,1s-1.3-0.1-2.6,0.2c-1.3,0.3-3.1,1.1-2.6,2.9c0.6,2.1,4.6,3.4,4.1,4.9c-0.3,0.5-0.6,0.7-0.6,0.7h-5.4
	C15.7,45.4,16.6,45.3,17.6,44.7"/>
<path class="st0" d="M39.3,19.6c-0.7,0.1-2.9,0-4.2-0.1c-0.3,0-0.2,0-0.5,0c-1.4,0.1-3.9,0.2-4.6,0c-0.2-0.1-0.2-0.2,0-0.3l0.4-0.2
	c0.9-0.2,2.8-1,3.7-1.1c0.2,0,0.7-0.1,1-0.1c1.4,0.1,3.7,1.1,4.1,1.4C39.5,19.3,39.5,19.6,39.3,19.6 M37.9,21.4c0,0.5-1.3,0-3.1,0.1
	c-1.8,0-3.3,0.2-3.2,0c0.1-0.4-0.1-0.8-0.2-1.1v-0.1c-0.1-0.3,2,0.3,3.4,0.2c1.8-0.1,3.5-0.4,3.5-0.1C38.2,20.7,37.9,20.9,37.9,21.4
	 M34.5,15.8L34.5,15.8c0-0.2,0.4-0.6,0.5-0.3c0.1,0.3,0.3,1.9,0.3,1.9c-0.2,0-1,0.2-1-0.1C34.3,17,34.5,15.9,34.5,15.8 M0,4.1v41.4
	h2.5c0.1-1.9,1.2-11.3,1.1-14.6c-0.1-4.1-0.3-7.8-0.1-8.2c0.5-1,5.6-0.4,5.6-0.4S7.1,28.4,8,32c0.2,0.7,0.3,1.3,0.4,1.8
	c0.6-3.4,1.3-6,0.8-10.6c-0.5-5-1.1-8.4-0.5-8.5c0.8-0.2,1.4-0.5,1.4-0.5s0.6-2.9,1.1-2c0.5,0.9,0.9,1.9,0.9,1.9s0.9-0.2,1.6,0
	c0.7,0.1-1.2,7.1-0.8,12.6c0.1,1.1,0.3,2.7,0.5,3.6c0.1-0.5,0.4-1,0.5-1.5c0.8-4.5-0.2-9.1,0.6-9.1c1,0.1,1,0.7,3.3,1
	c2.6,0.3,3-0.2,2.8,0.3c-0.2,0.6-1.3,2.9-0.5,6.8c0.1,0.5,0.3,0.9,0.5,1.4c0.4-1.7,0.8-3.5,1-4.6c0.4-3-1.1-7-0.7-7
	c0.3,0,0.9-0.1,0.9-0.1s-0.2-0.8,0-0.8c0.3,0,1.1-0.1,1.1-0.1s0.2-1.2,0.4-1.2c0.2,0,1.7-0.1,2-0.1c0.2,0,0.2,1,0.2,1s1,0,1.1,0
	c0.2,0,0.2,0.9,0.2,0.9s0.7-0.1,1.2-0.1c0.6,0-1,1.4-0.8,8.2c0.1,3.1,0.3,5,0.9,6.4c0.3-1,0.5-2.2,0.7-3.6c0.1-1-0.7-3.1,0-2.9
	c1.2,0.3,2.9,1.5,5,2c-0.3-1.1-0.7-3.9-0.9-4.7c-0.3-0.9,1.2-0.3,2-0.3c0.8,0,2.4-0.5,2,0.3c-0.6,1.1-1.2,3.9-1.5,4.9
	c0.4,0,0.7-0.1,1.6-0.2c1.3-0.1-0.1,2.2-0.4,5.6c-0.2,1.9,2.3,10.2,2.4,12.5h2.7V4.1H0z"/>
<path class="st0" d="M28.5,37.3l0.1-0.2c0,0-0.1,0-0.5,0c-1.9,0-7.9,0.3-7.9,2.4c0,1.6,2.4,4.6,5.9,5.9h0.5c-1-1.4-2.5-3.9-2.4-4.9
	C24.4,38.2,28.5,37.3,28.5,37.3"/>
<path class="st0" d="M17.6,44.8c0.1-0.1,0.2-0.2,0.3-0.3c0.6-0.7-1.1-2.1-2.8-3.3c-1.1-0.8-1.5-2-0.8-3.2c0.5-0.9,2.3-2.2,4.9-2.1
	c2.7,0.1,3.6,1,3.6,1s-1.3-0.1-2.6,0.2c-1.3,0.3-3.1,1.1-2.6,2.9c0.6,2.1,4.6,3.4,4.1,4.9c-0.3,0.5-0.6,0.7-0.6,0.7h-5.4
	C15.7,45.5,16.6,45.3,17.6,44.8"/>
<path class="st0" d="M62.4,6.6l-2.1,1.2c-0.4-0.7-0.8-1.1-1.1-1.3c-0.4-0.2-0.8-0.4-1.4-0.4c-0.7,0-1.3,0.2-1.8,0.6
	c-0.5,0.4-0.7,0.9-0.7,1.5c0,0.8,0.6,1.5,1.8,2l1.7,0.7c1.4,0.6,2.4,1.2,3,2c0.6,0.8,1,1.8,1,3c0,1.6-0.5,2.9-1.6,3.9
	c-1,1-2.4,1.5-3.9,1.5c-1.5,0-2.7-0.4-3.7-1.3c-0.9-0.9-1.5-2.1-1.8-3.7l2.6-0.6c0.1,1,0.3,1.7,0.6,2.1c0.5,0.7,1.3,1.1,2.3,1.1
	c0.8,0,1.5-0.3,2-0.8c0.5-0.5,0.8-1.2,0.8-2c0-0.3,0-0.6-0.1-0.9c-0.1-0.3-0.2-0.5-0.4-0.8c-0.2-0.2-0.4-0.4-0.8-0.7
	c-0.3-0.2-0.7-0.4-1.1-0.6l-1.6-0.7c-2.3-1-3.5-2.4-3.5-4.3c0-1.3,0.5-2.3,1.5-3.2c1-0.9,2.2-1.3,3.6-1.3
	C59.8,3.8,61.3,4.7,62.4,6.6"/>
<polyline class="st0" points="74.7,6.5 67.9,6.5 67.9,10.6 74.5,10.6 74.5,13 67.9,13 67.9,18.7 74.7,18.7 74.7,21.1 65.3,21.1 
	65.3,4.1 74.7,4.1 74.7,6.5 "/>
<path class="st0" d="M87,14.5l-2.5-5.8l-2.6,5.8H87 M88,17h-7.3l-1.9,4.1h-2.8L84.5,3l8.1,18.1h-2.8L88,17z"/>
<polyline class="st0" points="97.8,6.5 97.8,21.1 95.3,21.1 95.3,6.5 91.4,6.5 91.4,4.1 101.7,4.1 101.7,6.5 97.8,6.5 "/>
<polyline class="st0" points="110,6.5 110,21.1 107.4,21.1 107.4,6.5 103.5,6.5 103.5,4.1 113.9,4.1 113.9,6.5 110,6.5 "/>
<polyline class="st0" points="118.7,4.1 118.7,18.7 123.7,18.7 123.7,21.1 116.2,21.1 116.2,4.1 118.7,4.1 "/>
<polyline class="st0" points="135.5,6.5 128.7,6.5 128.7,10.6 135.3,10.6 135.3,13 128.7,13 128.7,18.7 135.5,18.7 135.5,21.1 
	126.2,21.1 126.2,4.1 135.5,4.1 135.5,6.5 "/>
<path class="st0" d="M158.4,5v3c-1.5-1.2-3-1.9-4.6-1.9c-1.7,0-3.2,0.6-4.4,1.9c-1.2,1.2-1.8,2.8-1.8,4.6c0,1.8,0.6,3.3,1.8,4.5
	c1.2,1.2,2.7,1.8,4.4,1.8c0.9,0,1.7-0.1,2.3-0.4c0.4-0.1,0.7-0.3,1.1-0.6c0.4-0.2,0.8-0.5,1.2-0.9v3.1c-1.5,0.8-3,1.3-4.6,1.3
	c-2.4,0-4.5-0.8-6.2-2.5c-1.7-1.7-2.6-3.8-2.6-6.2c0-2.2,0.7-4.1,2.1-5.8c1.8-2.1,4-3.1,6.8-3.1C155.5,3.8,157,4.2,158.4,5"/>
<polyline class="st0" points="171,6.5 164.2,6.5 164.2,10.6 170.8,10.6 170.8,13 164.2,13 164.2,18.7 171,18.7 171,21.1 161.7,21.1 
	161.7,4.1 171,4.1 171,6.5 "/>
<polyline class="st0" points="174.4,21.1 174.4,2.9 186.8,15.9 186.8,4.1 189.4,4.1 189.4,22.1 177,9.2 177,21.1 174.4,21.1 "/>
<polyline class="st0" points="198.1,6.5 198.1,21.1 195.6,21.1 195.6,6.5 191.7,6.5 191.7,4.1 202,4.1 202,6.5 198.1,6.5 "/>
<path class="st0" d="M206.9,11.9h0.8c2.4,0,3.6-0.9,3.6-2.8c0-1.7-1.2-2.6-3.5-2.6h-0.9V11.9 M210.1,13.8l5.3,7.2h-3.1l-4.9-7h-0.5
	v7h-2.6v-17h3c2.2,0,3.9,0.4,4.9,1.3c1.1,0.9,1.7,2.2,1.7,3.7c0,1.2-0.3,2.2-1,3.1C212.1,13,211.2,13.6,210.1,13.8"/>
<path class="st0" d="M226.8,14.5l-2.5-5.8l-2.6,5.8H226.8 M227.9,17h-7.3l-1.9,4.1H216L224.4,3l8.1,18.1h-2.8L227.9,17z"/>
<polyline class="st0" points="237.2,4.1 237.2,18.7 242.2,18.7 242.2,21.1 234.6,21.1 234.6,4.1 237.2,4.1 "/>
<path class="st0" d="M65.3,28.3v3c-1.5-1.2-3-1.9-4.6-1.9c-1.7,0-3.2,0.6-4.4,1.9c-1.2,1.2-1.8,2.8-1.8,4.6c0,1.8,0.6,3.3,1.8,4.5
	c1.2,1.2,2.7,1.8,4.4,1.8c0.9,0,1.7-0.1,2.3-0.4c0.4-0.1,0.7-0.3,1.1-0.6c0.4-0.2,0.8-0.6,1.2-0.9v3.1c-1.5,0.8-3,1.3-4.6,1.3
	c-2.4,0-4.5-0.8-6.2-2.5c-1.7-1.7-2.6-3.8-2.6-6.2c0-2.2,0.7-4.1,2.1-5.8c1.8-2.1,4-3.1,6.8-3.1C62.4,27.1,63.9,27.5,65.3,28.3"/>
<path class="st0" d="M69.7,35.8c0,1.9,0.6,3.4,1.9,4.6c1.3,1.2,2.7,1.8,4.3,1.8c1.8,0,3.3-0.6,4.5-1.8c1.2-1.2,1.8-2.8,1.8-4.6
	c0-1.8-0.6-3.3-1.8-4.6c-1.2-1.2-2.7-1.8-4.5-1.8c-1.8,0-3.3,0.6-4.5,1.8C70.4,32.5,69.7,34.1,69.7,35.8 M67.2,35.8
	c0-2.4,0.9-4.4,2.6-6.2c1.7-1.7,3.8-2.6,6.3-2.6c2.4,0,4.5,0.9,6.2,2.6c1.7,1.7,2.6,3.8,2.6,6.2c0,2.4-0.9,4.5-2.6,6.2
	c-1.8,1.7-3.9,2.6-6.4,2.6c-2.2,0-4.2-0.8-5.9-2.3C68.1,40.7,67.2,38.5,67.2,35.8"/>
<polyline class="st0" points="89.8,27.4 89.8,42 94.8,42 94.8,44.4 87.3,44.4 87.3,27.4 89.8,27.4 "/>
<polyline class="st0" points="99.8,27.4 99.8,42 104.8,42 104.8,44.4 97.2,44.4 97.2,27.4 99.8,27.4 "/>
<polyline class="st0" points="116.6,29.8 109.8,29.8 109.8,33.9 116.4,33.9 116.4,36.3 109.8,36.3 109.8,42 116.6,42 116.6,44.4 
	107.2,44.4 107.2,27.4 116.6,27.4 116.6,29.8 "/>
<path class="st0" d="M128.3,35.5h7v0.6c0,1.3-0.2,2.4-0.5,3.4c-0.3,0.9-0.8,1.8-1.5,2.6c-1.6,1.8-3.6,2.7-6,2.7
	c-2.4,0-4.4-0.9-6.1-2.6c-1.7-1.7-2.5-3.8-2.5-6.2c0-2.5,0.9-4.6,2.6-6.3c1.7-1.7,3.8-2.6,6.3-2.6c1.3,0,2.6,0.3,3.7,0.8
	c1.1,0.5,2.2,1.4,3.2,2.6l-1.8,1.8c-1.4-1.9-3.1-2.8-5.1-2.8c-1.8,0-3.3,0.6-4.5,1.9c-1.2,1.2-1.8,2.7-1.8,4.6c0,1.9,0.7,3.5,2,4.7
	c1.3,1.1,2.6,1.7,4.1,1.7c1.3,0,2.4-0.4,3.4-1.3c1-0.9,1.6-1.9,1.7-3.1h-4.2V35.5"/>
<polyline class="st0" points="147,29.8 140.2,29.8 140.2,33.9 146.8,33.9 146.8,36.3 140.2,36.3 140.2,42 147,42 147,44.4 
	137.6,44.4 137.6,27.4 147,27.4 147,29.8 "/>
<path class="st0" d="M65.3,28.3v3c-1.5-1.2-3-1.9-4.6-1.9c-1.8,0-3.2,0.6-4.4,1.9c-1.2,1.2-1.8,2.8-1.8,4.6c0,1.8,0.6,3.3,1.8,4.5
	c1.2,1.2,2.7,1.8,4.4,1.8c0.9,0,1.7-0.1,2.3-0.4c0.4-0.1,0.7-0.3,1.1-0.6c0.4-0.2,0.8-0.6,1.2-0.9v3.1c-1.5,0.8-3,1.2-4.6,1.2
	c-2.4,0-4.5-0.8-6.2-2.5c-1.7-1.7-2.6-3.8-2.6-6.2c0-2.2,0.7-4.1,2.1-5.8c1.8-2.1,4-3.1,6.8-3.1C62.4,27.1,63.9,27.5,65.3,28.3"/>
<path class="st0" d="M69.7,35.9c0,1.9,0.6,3.4,1.9,4.6c1.3,1.2,2.7,1.8,4.3,1.8c1.8,0,3.3-0.6,4.5-1.8c1.2-1.2,1.8-2.8,1.8-4.6
	c0-1.8-0.6-3.3-1.8-4.6c-1.2-1.2-2.7-1.8-4.5-1.8c-1.8,0-3.3,0.6-4.5,1.8C70.4,32.6,69.7,34.1,69.7,35.9 M67.2,35.8
	c0-2.4,0.9-4.5,2.6-6.2c1.7-1.7,3.8-2.6,6.3-2.6c2.4,0,4.5,0.9,6.2,2.6c1.7,1.7,2.6,3.8,2.6,6.2c0,2.4-0.9,4.5-2.6,6.2
	c-1.8,1.7-3.9,2.6-6.4,2.6c-2.2,0-4.2-0.8-5.9-2.3C68.1,40.8,67.2,38.5,67.2,35.8"/>
<polyline class="st0" points="89.8,27.4 89.8,42 94.8,42 94.8,44.4 87.3,44.4 87.3,27.4 89.8,27.4 "/>
<polyline class="st0" points="99.8,27.4 99.8,42 104.8,42 104.8,44.4 97.2,44.4 97.2,27.4 99.8,27.4 "/>
<polyline class="st0" points="116.6,29.8 109.8,29.8 109.8,33.9 116.4,33.9 116.4,36.3 109.8,36.3 109.8,42 116.6,42 116.6,44.4 
	107.2,44.4 107.2,27.4 116.6,27.4 116.6,29.8 "/>
<path class="st0" d="M128.3,35.6h7v0.6c0,1.3-0.2,2.4-0.5,3.4c-0.3,0.9-0.8,1.8-1.5,2.6c-1.6,1.8-3.6,2.7-6,2.7
	c-2.4,0-4.4-0.9-6.1-2.6c-1.7-1.7-2.5-3.8-2.5-6.2c0-2.5,0.9-4.6,2.6-6.3c1.7-1.7,3.8-2.6,6.3-2.6c1.3,0,2.6,0.3,3.7,0.8
	c1.1,0.5,2.2,1.4,3.2,2.6l-1.8,1.8c-1.4-1.9-3.1-2.8-5.1-2.8c-1.8,0-3.3,0.6-4.5,1.9c-1.2,1.2-1.8,2.7-1.8,4.6c0,1.9,0.7,3.5,2,4.7
	c1.3,1.1,2.6,1.7,4.1,1.7c1.3,0,2.4-0.4,3.4-1.3c1-0.9,1.6-1.9,1.7-3.1h-4.2V35.6"/>
<polyline class="st0" points="147,29.8 140.2,29.8 140.2,33.9 146.8,33.9 146.8,36.3 140.2,36.3 140.2,42 147,42 147,44.4 
	137.6,44.4 137.6,27.4 147,27.4 147,29.8 "/>
<line class="st1" x1="0.7" y1="51.1" x2="242.2" y2="51.1"/>
<g>
	<path class="st0" d="M7.3,66.7c-0.6,0.3-1.6,0.5-2.8,0.5c-2.7,0-4.4-1.7-4.4-4.5c0-2,0.8-4,2.3-5.2c1.1-1,2.5-1.5,4.1-1.5
		c1.2,0,2.1,0.3,2.4,0.5l-0.4,1.1c-0.4-0.2-1.2-0.5-2.1-0.5c-1.1,0-2.3,0.4-3.1,1.2c-1,1-1.7,2.5-1.7,4.1c0,2,0.9,3.6,3.3,3.6
		c0.8,0,1.7-0.2,2.3-0.5L7.3,66.7z"/>
	<path class="st0" d="M14.2,66.6c-0.6,0.3-1.5,0.6-2.6,0.6c-2.1,0-3-1.4-3-3.1c0-2.4,1.7-5,4.3-5c1.5,0,2.3,0.9,2.3,2
		c0,2-2.3,2.6-5.2,2.5c-0.1,0.3,0,1.1,0.2,1.5c0.3,0.7,0.9,1,1.7,1c0.9,0,1.6-0.3,2.1-0.5L14.2,66.6z M12.7,60.1
		c-1.3,0-2.2,1.2-2.5,2.5c2.1,0,3.7-0.3,3.7-1.5C13.9,60.4,13.4,60.1,12.7,60.1z"/>
	<path class="st0" d="M15.9,67l1-5.5c0.2-0.9,0.3-1.6,0.4-2.3h1.2l-0.2,1.5h0C19,59.7,20,59,21.2,59c0.9,0,2,0.5,2,2.2
		c0,0.3-0.1,0.8-0.1,1.3L22.2,67h-1.3l0.9-4.5c0.1-0.3,0.1-0.7,0.1-1c0-0.8-0.3-1.4-1.2-1.4c-1,0-2.3,1.1-2.7,3.1L17.2,67H15.9z"/>
	<path class="st0" d="M28,57.1l-0.4,2.1h1.9l-0.2,1h-1.9l-0.7,3.8c-0.1,0.4-0.1,0.8-0.1,1.3c0,0.5,0.2,0.7,0.7,0.7
		c0.2,0,0.5,0,0.6,0l-0.1,1c-0.2,0.1-0.6,0.1-1,0.1c-1.2,0-1.6-0.7-1.6-1.5c0-0.5,0-0.9,0.2-1.5l0.8-4h-1.1l0.2-1h1.1l0.3-1.8
		L28,57.1z"/>
	<path class="st0" d="M29.5,67l1-5c0.2-1,0.3-2,0.4-2.8h1.2c-0.1,0.5-0.1,1.1-0.2,1.7h0c0.5-1.1,1.3-1.9,2.4-1.9c0.1,0,0.3,0,0.4,0
		l-0.3,1.3c-0.1,0-0.2,0-0.4,0c-1.2,0-2.2,1.4-2.5,3.2L30.9,67H29.5z"/>
	<path class="st0" d="M39.6,67c0-0.5,0.1-1.2,0.2-2h0c-0.9,1.6-1.9,2.2-3,2.2c-1.4,0-2.2-1.1-2.2-2.6c0-2.7,2-5.6,5.4-5.6
		c0.7,0,1.6,0.1,2.1,0.3l-0.8,4.1c-0.3,1.4-0.4,2.7-0.3,3.6H39.6z M40.5,60.2c-0.2,0-0.5-0.1-0.9-0.1c-2,0-3.7,2.1-3.7,4.3
		c0,0.9,0.3,1.7,1.3,1.7c1.1,0,2.4-1.5,2.8-3.5L40.5,60.2z"/>
	<path class="st0" d="M42.9,67L45,55.6h1.3L44.2,67H42.9z"/>
	<path class="st0" d="M53,57.1l-0.4,2.1h1.9l-0.2,1h-1.9l-0.7,3.8c-0.1,0.4-0.1,0.8-0.1,1.3c0,0.5,0.2,0.7,0.7,0.7
		c0.2,0,0.5,0,0.6,0l-0.1,1c-0.2,0.1-0.6,0.1-1,0.1c-1.2,0-1.6-0.7-1.6-1.5c0-0.5,0-0.9,0.2-1.5l0.8-4h-1.1l0.2-1h1.1l0.3-1.8
		L53,57.1z"/>
	<path class="st0" d="M62,62.3c0,2.4-1.7,4.9-4.3,4.9c-2,0-3-1.5-3-3.2c0-2.6,1.8-5,4.3-5C61,59,62,60.6,62,62.3z M56,64
		c0,1.3,0.7,2.2,1.8,2.2c1.6,0,2.8-2,2.8-3.9c0-0.9-0.4-2.2-1.8-2.2C57.1,60.1,56,62.2,56,64z"/>
	<path class="st0" d="M69.3,57.1l-0.4,2.1h1.9l-0.2,1h-1.9L68,64.1c-0.1,0.4-0.1,0.8-0.1,1.3c0,0.5,0.2,0.7,0.7,0.7
		c0.2,0,0.5,0,0.6,0l-0.1,1c-0.2,0.1-0.6,0.1-1,0.1c-1.2,0-1.6-0.7-1.6-1.5c0-0.5,0-0.9,0.2-1.5l0.8-4h-1.1l0.2-1h1.1l0.3-1.8
		L69.3,57.1z"/>
	<path class="st0" d="M70.9,67l2.2-11.5h1.3l-1,5h0c0.7-1,1.6-1.6,2.8-1.6c0.9,0,1.9,0.5,1.9,2.1c0,0.4,0,0.9-0.1,1.3L77.2,67h-1.3
		l0.9-4.5c0-0.3,0.1-0.6,0.1-1.1c0-0.7-0.3-1.3-1.2-1.3c-1,0-2.3,1.2-2.7,3L72.2,67H70.9z"/>
	<path class="st0" d="M85.1,66.6c-0.6,0.3-1.5,0.6-2.6,0.6c-2.1,0-3-1.4-3-3.1c0-2.4,1.7-5,4.3-5c1.5,0,2.3,0.9,2.3,2
		c0,2-2.3,2.6-5.2,2.5c-0.1,0.3,0,1.1,0.2,1.5c0.3,0.7,0.9,1,1.7,1c0.9,0,1.6-0.3,2.1-0.5L85.1,66.6z M83.7,60.1
		c-1.3,0-2.2,1.2-2.5,2.5c2.1,0,3.7-0.3,3.7-1.5C84.9,60.4,84.4,60.1,83.7,60.1z"/>
	<path class="st0" d="M97.3,66.7c-0.6,0.3-1.6,0.5-2.8,0.5c-2.7,0-4.4-1.7-4.4-4.5c0-2,0.8-4,2.3-5.2c1.1-1,2.5-1.5,4.1-1.5
		c1.2,0,2.1,0.3,2.4,0.5l-0.4,1.1c-0.4-0.2-1.2-0.5-2.1-0.5c-1.1,0-2.3,0.4-3.1,1.2c-1,1-1.7,2.5-1.7,4.1c0,2,0.9,3.6,3.3,3.6
		c0.8,0,1.7-0.2,2.3-0.5L97.3,66.7z"/>
	<path class="st0" d="M106.1,62.3c0,2.4-1.7,4.9-4.3,4.9c-2,0-3-1.5-3-3.2c0-2.6,1.8-5,4.3-5C105.2,59,106.1,60.6,106.1,62.3z
		 M100.1,64c0,1.3,0.7,2.2,1.8,2.2c1.6,0,2.8-2,2.8-3.9c0-0.9-0.4-2.2-1.8-2.2C101.2,60.1,100.1,62.2,100.1,64z"/>
	<path class="st0" d="M107,67l1-5.5c0.2-0.9,0.3-1.6,0.4-2.3h1.2l-0.2,1.5h0c0.7-1.1,1.7-1.6,2.7-1.6c1.2,0,1.8,0.8,1.8,1.7
		c0.7-1.1,1.7-1.7,2.9-1.7c0.9,0,1.9,0.6,1.9,2c0,0.4,0,0.9-0.1,1.3l-0.9,4.6h-1.3l0.8-4.5c0.1-0.3,0.1-0.7,0.1-1
		c0-0.8-0.3-1.4-1.2-1.4c-1,0-2.1,1.1-2.4,2.9l-0.8,4h-1.3l0.9-4.6c0.1-0.3,0.1-0.6,0.1-1c0-0.7-0.2-1.3-1.2-1.3c-1,0-2.2,1.3-2.5,3
		l-0.7,3.9H107z"/>
	<path class="st0" d="M120.1,67l1-5.5c0.2-0.9,0.3-1.6,0.4-2.3h1.2l-0.2,1.5h0c0.7-1.1,1.7-1.6,2.7-1.6c1.2,0,1.8,0.8,1.8,1.7
		c0.7-1.1,1.7-1.7,2.9-1.7c0.9,0,1.9,0.6,1.9,2c0,0.4,0,0.9-0.1,1.3l-0.9,4.6h-1.3l0.8-4.5c0.1-0.3,0.1-0.7,0.1-1
		c0-0.8-0.3-1.4-1.2-1.4c-1,0-2.1,1.1-2.4,2.9l-0.8,4h-1.3l0.9-4.6c0.1-0.3,0.1-0.6,0.1-1c0-0.7-0.2-1.3-1.2-1.3c-1,0-2.2,1.3-2.5,3
		l-0.7,3.9H120.1z"/>
	<path class="st0" d="M140.7,59.2l-1,5.5c-0.2,0.9-0.3,1.6-0.4,2.3h-1.2l0.2-1.5h0c-0.7,1-1.7,1.6-2.8,1.6c-1,0-2-0.5-2-2.3
		c0-0.4,0-0.8,0.1-1.3l0.8-4.4h1.3l-0.8,4.4c-0.1,0.4-0.1,0.8-0.1,1.1c0,0.8,0.3,1.4,1.3,1.4c1,0,2.2-1.1,2.5-2.9l0.8-4H140.7z"/>
	<path class="st0" d="M141.5,67l1-5.5c0.2-0.9,0.3-1.6,0.4-2.3h1.2l-0.2,1.5h0c0.7-1.1,1.7-1.7,2.9-1.7c0.9,0,2,0.5,2,2.2
		c0,0.3-0.1,0.8-0.1,1.3l-0.9,4.6h-1.3l0.9-4.5c0.1-0.3,0.1-0.7,0.1-1c0-0.8-0.3-1.4-1.2-1.4c-1,0-2.3,1.1-2.7,3.1l-0.7,3.8H141.5z"
		/>
	<path class="st0" d="M150.2,67l1.5-7.8h1.3l-1.5,7.8H150.2z M151.9,57c0-0.5,0.4-0.9,0.9-0.9s0.8,0.4,0.8,0.8
		c0,0.5-0.4,0.9-0.9,0.9C152.2,57.9,151.9,57.5,151.9,57z"/>
	<path class="st0" d="M157.4,57.1l-0.4,2.1h1.9l-0.2,1h-1.9l-0.7,3.8c-0.1,0.4-0.1,0.8-0.1,1.3c0,0.5,0.2,0.7,0.7,0.7
		c0.2,0,0.5,0,0.6,0l-0.1,1c-0.2,0.1-0.6,0.1-1,0.1c-1.2,0-1.6-0.7-1.6-1.5c0-0.5,0-0.9,0.2-1.5l0.8-4h-1.1l0.2-1h1.1l0.3-1.8
		L157.4,57.1z"/>
	<path class="st0" d="M160.8,59.2l0.8,4.2c0.2,0.9,0.3,1.5,0.4,2h0c0.2-0.5,0.4-1,0.8-1.9l2-4.4h1.4l-2.9,5.9
		c-0.8,1.7-1.6,3.1-2.7,4.1c-0.9,0.9-1.8,1.3-2.3,1.4l-0.3-1.1c0.3-0.1,0.9-0.3,1.4-0.8c0.5-0.4,1.1-1,1.5-1.8
		c0.1-0.1,0.1-0.2,0-0.4l-1.6-7.3H160.8z"/>
	<path class="st0" d="M169.4,67l1.3-6.8h-1l0.2-1h1l0.1-0.4c0.2-1.1,0.6-2.1,1.3-2.7c0.5-0.5,1.2-0.7,1.9-0.7c0.5,0,0.9,0.1,1.1,0.2
		l-0.3,1.1c-0.2-0.1-0.5-0.1-0.8-0.1c-1.1,0-1.6,1-1.8,2.3l-0.1,0.4h1.7l-0.2,1H172l-1.3,6.8H169.4z"/>
	<path class="st0" d="M181.2,62.3c0,2.4-1.7,4.9-4.3,4.9c-2,0-3-1.5-3-3.2c0-2.6,1.8-5,4.3-5C180.3,59,181.2,60.6,181.2,62.3z
		 M175.2,64c0,1.3,0.7,2.2,1.8,2.2c1.6,0,2.8-2,2.8-3.9c0-0.9-0.4-2.2-1.8-2.2C176.3,60.1,175.2,62.2,175.2,64z"/>
	<path class="st0" d="M182.2,67l1-5c0.2-1,0.3-2,0.4-2.8h1.2c-0.1,0.5-0.1,1.1-0.2,1.7h0c0.5-1.1,1.3-1.9,2.4-1.9c0.1,0,0.3,0,0.4,0
		l-0.3,1.3c-0.1,0-0.2,0-0.4,0c-1.2,0-2.2,1.4-2.5,3.2l-0.6,3.4H182.2z"/>
	<path class="st0" d="M197.4,57.7h-3.6l-0.8,2.7c0.2,0,0.3,0,0.5,0c0.6,0,1.2,0.1,1.8,0.5c0.9,0.5,1.3,1.4,1.3,2.3
		c0,2.6-2,4.1-4.3,4.1c-1,0-1.9-0.3-2.3-0.6l0.4-1.1c0.4,0.2,1.1,0.5,2,0.5c1.5,0,2.8-1.2,2.8-2.6c0-1.1-0.6-2-2.5-2
		c-0.4,0-0.8,0-1.2,0.1l1.5-4.9h4.7L197.4,57.7z"/>
	<path class="st0" d="M205.6,59.7c0,3.4-1.6,7.6-4.6,7.6c-1.9,0-2.6-1.6-2.6-3.6c0-3.5,1.8-7.2,4.6-7.2
		C205,56.4,205.6,58,205.6,59.7z M199.8,63.7c0,1.1,0.2,2.5,1.5,2.5c2,0,3-4.3,3-6.4c0-0.8-0.1-2.3-1.4-2.3
		C201,57.4,199.8,61.1,199.8,63.7z"/>
	<path class="st0" d="M211.2,67l0.9-4.5l-2.1-6.4h1.4l1,3.5c0.3,1,0.4,1.4,0.5,1.8h0c0.3-0.5,0.6-1.1,1.2-1.9l2.4-3.5h1.6l-4.6,6.3
		l-0.9,4.5H211.2z"/>
	<path class="st0" d="M221.9,66.6c-0.6,0.3-1.5,0.6-2.6,0.6c-2.1,0-3-1.4-3-3.1c0-2.4,1.7-5,4.3-5c1.5,0,2.3,0.9,2.3,2
		c0,2-2.3,2.6-5.2,2.5c-0.1,0.3,0,1.1,0.2,1.5c0.3,0.7,0.9,1,1.7,1c0.9,0,1.6-0.3,2.1-0.5L221.9,66.6z M220.4,60.1
		c-1.3,0-2.2,1.2-2.5,2.5c2.1,0,3.7-0.3,3.7-1.5C221.6,60.4,221.1,60.1,220.4,60.1z"/>
	<path class="st0" d="M228.8,67c0-0.5,0.1-1.2,0.2-2h0c-0.9,1.6-1.9,2.2-3,2.2c-1.4,0-2.2-1.1-2.2-2.6c0-2.7,2-5.6,5.4-5.6
		c0.7,0,1.6,0.1,2.1,0.3l-0.8,4.1c-0.3,1.4-0.4,2.7-0.3,3.6H228.8z M229.7,60.2c-0.2,0-0.5-0.1-0.9-0.1c-2,0-3.7,2.1-3.7,4.3
		c0,0.9,0.3,1.7,1.3,1.7c1.1,0,2.4-1.5,2.8-3.5L229.7,60.2z"/>
	<path class="st0" d="M232,67l1-5c0.2-1,0.3-2,0.4-2.8h1.2c-0.1,0.5-0.1,1.1-0.2,1.7h0c0.5-1.1,1.3-1.9,2.4-1.9c0.1,0,0.3,0,0.4,0
		l-0.3,1.3c-0.1,0-0.2,0-0.4,0c-1.2,0-2.2,1.4-2.5,3.2l-0.6,3.4H232z"/>
	<path class="st0" d="M237.2,65.7c0.4,0.2,1,0.5,1.7,0.5c0.9,0,1.5-0.6,1.5-1.3c0-0.6-0.3-1-1.1-1.4c-0.9-0.5-1.4-1.2-1.4-2
		c0-1.4,1.2-2.4,2.8-2.4c0.7,0,1.3,0.2,1.6,0.4l-0.4,1c-0.3-0.2-0.8-0.4-1.4-0.4c-0.8,0-1.4,0.5-1.4,1.2c0,0.6,0.4,0.9,1.1,1.3
		c0.9,0.5,1.5,1.2,1.5,2c0,1.6-1.3,2.6-3,2.6c-0.8,0-1.6-0.3-1.9-0.5L237.2,65.7z"/>
</g>
</svg>
